{"title":"alexis texas hot","uid":8800277,"size":116312097,"categoryP":"porn","categoryS":"other","magnet":"?xt=urn:btih:5da25c7252dac49aa4c9252728c119950722ccd0&amp;dn=alexis+texas+hot&amp;tr=udp%3A%2F%2Ftracker.openbittorrent.com%3A80&amp;tr=udp%3A%2F%2Fopen.demonii.com%3A1337&amp;tr=udp%3A%2F%2Ftracker.coppersurfer.tk%3A6969&amp;tr=udp%3A%2F%2Fexodus.desync.com%3A6969","seeders":0,"leechers":0,"uploader":"raju0341","files":1,"time":1376182050,"description":"screenshots==&gt;&gt; \n &lt;a href=&quot;\nhttp://postimg.org/image/i1ug3zo13/&quot; rel=&quot;nofollow&quot; target=&quot;_NEW&quot;&gt;\nhttp://postimg.org/image/i1ug3zo13/&lt;/a&gt;\n &lt;a href=&quot;\nhttp://postimg.org/image/tbn5yxt2f/&quot; rel=&quot;nofollow&quot; target=&quot;_NEW&quot;&gt;\nhttp://postimg.org/image/tbn5yxt2f/&lt;/a&gt;\n &lt;a href=&quot;\nhttp://postimg.org/image/rcb5l9o4n/&quot; rel=&quot;nofollow&quot; target=&quot;_NEW&quot;&gt;\nhttp://postimg.org/image/rcb5l9o4n/&lt;/a&gt;\n &lt;a href=&quot;\nhttp://postimg.org/image/vu8uzmesn/&quot; rel=&quot;nofollow&quot; target=&quot;_NEW&quot;&gt;\nhttp://postimg.org/image/vu8uzmesn/&lt;/a&gt;\n &lt;a href=&quot;\nhttp://postimg.org/image/j831gj1pj/&quot; rel=&quot;nofollow&quot; target=&quot;_NEW&quot;&gt;\nhttp://postimg.org/image/j831gj1pj/&lt;/a&gt;\n &lt;a href=&quot;\nhttp://postimg.org/image/vu8uzmesn/&quot; rel=&quot;nofollow&quot; target=&quot;_NEW&quot;&gt;\nhttp://postimg.org/image/vu8uzmesn/&lt;/a&gt;\n &lt;a href=&quot;\nhttp://postimg.org/image/77hlfsuav/&quot; rel=&quot;nofollow&quot; target=&quot;_NEW&quot;&gt;\nhttp://postimg.org/image/77hlfsuav/&lt;/a&gt;\n &lt;a href=&quot;\nhttp://postimg.org/image/c2bae2smf/]&quot; rel=&quot;nofollow&quot; target=&quot;_NEW&quot;&gt;\nhttp://postimg.org/image/c2bae2smf/]&lt;/a&gt;\n\n\n\n\nGeneral\nComplete name :\nFormat : MPEG-4\nFormat profile : Base Media\nCodec ID : isom\nFile size : 111 MiB\nDuration : 37mn 12s\nOverall bit rate : 417 Kbps\nWriting application : Lavf53.4.0\n\nVideo #1\nID : 1\nFormat : AVC\nFormat/Info : Advanced Video Codec\nFormat profile : &lt;a class=&quot;__cf_email__&quot; href=&quot;/cdn-cgi/l/email-protection&quot; data-cfemail=&quot;36745745535a5f5853767a041807&quot;&gt;[email&amp;#160;protected]&lt;/a&gt;&lt;script cf-hash='f9e31' type=&quot;text/javascript&quot;&gt;\n/* &lt;![CDATA[ */!function(){try{var t=&quot;currentScript&quot;in document?document.currentScript:function(){for(var t=document.getElementsByTagName(&quot;script&quot;),e=t.length;e--;)if(t[e].getAttribute(&quot;cf-hash&quot;))return t[e]}();if(t&amp;&amp;t.previousSibling){var e,r,n,i,c=t.previousSibling,a=c.getAttribute(&quot;data-cfemail&quot;);if(a){for(e=&quot;&quot;,r=parseInt(a.substr(0,2),16),n=2;a.length-n;n+=2)i=parseInt(a.substr(n,2),16)^r,e+=String.fromCharCode(i);e=document.createTextNode(e),c.parentNode.replaceChild(e,c)}}}catch(u){}}();/* ]]&gt; */&lt;/script&gt;\nFormat settings, CABAC : No\nFormat settings, ReFrames : 1 frame\nCodec ID : avc1\nCodec ID/Info : Advanced Video Coding\nDuration : 37mn 12s\nBit rate : 300 Kbps\nWidth : 432 pixels\nHeight : 240 pixels\nDisplay aspect ratio : 16:9\nFrame rate mode : Constant\nFrame rate : 24.000 fps\nColor space : YUV\nChroma subsampling : 4:2:0\nBit depth : 8 bits\nScan type : Progressive\nBits/(Pixel*Frame) : 0.121\nStream size : 78.9 MiB (71%)\nWriting library : x264 core 118 r2085 8a62835\nEncoding settings : cabac=0 // deblock=1:0:0 / analyse=0x1:0x11 / me=hex / subme=5 / psy=1 / psy_rd=1.00:0.00 // me_range=16 / chroma_me=1 / trellis=0 / 8x8dct=0 / cqm=0 / deadzone=21,11 / fast_pskip=1 / chroma_qp_offset=0 / threads=24 / sliced_threads=0 / nr=0 / decimate=1 / interlaced=0 / bluray_compat=0 / constrained_intra=0 / bframes=0 / weightp=0 / keyint=50 / keyint_min=25 / scenecut=40 / intra_refresh=0 / rc_lookahead=40 / rc=2pass / mbtree=1 / bitrate=300 / ratetol=1.0 / qcomp=0.60 / qpmin=10 / qpmax=51 / qpstep=4 / cplxblur=20.0 / qblur=0.5 / vbv_maxrate=300 / vbv_bufsize=200 / nal_hrd=none / ip_ratio=1.41 / aq=1:1.00\nTagged date : UTC 2011-11-04 21:51:25\n\nAudio #2\nID : 2\nFormat : AAC\nFormat/Info : Advanced Audio Codec\nFormat profile : LC\nCodec ID : 40\nDuration : 37mn 12s\nBit rate mode : Constant\nBit rate : 96.0 Kbps\nChannel(s) : 2 channels\nChannel positions : Front: L R\nSampling rate : 44.1 KHz\nCompression mode : Lossy\nStream size : 25.5 MiB (23%)\nTagged date : UTC 2011-11-04 21:51:25\n\n\n","torrent":{"xt":"urn:btih:5da25c7252dac49aa4c9252728c119950722ccd0","amp;dn":"alexis+texas+hot","amp;tr":["udp%3A%2F%2Ftracker.openbittorrent.com%3A80","udp%3A%2F%2Fopen.demonii.com%3A1337","udp%3A%2F%2Ftracker.coppersurfer.tk%3A6969","udp%3A%2F%2Fexodus.desync.com%3A6969"],"infoHash":"5da25c7252dac49aa4c9252728c119950722ccd0","infoHashBuffer":{"type":"Buffer","data":[93,162,92,114,82,218,196,154,164,201,37,39,40,193,25,149,7,34,204,208]},"announce":[],"urlList":[]}}